<mxfile host="Electron" modified="2023-05-08T09:21:54.423Z" agent="Mozilla/5.0 (Windows NT 10.0; Win64; x64) AppleWebKit/537.36 (KHTML, like Gecko) draw.io/21.2.1 Chrome/112.0.5615.87 Electron/24.1.2 Safari/537.36" etag="Jszj4v0aKJhhz3TgNTkS" version="21.2.1" type="device">
  <diagram name="第 1 页" id="Rfhtg79SOh8lw-rNDW9a">
    <mxGraphModel dx="2037" dy="1630" grid="1" gridSize="10" guides="1" tooltips="1" connect="1" arrows="1" fold="1" page="1" pageScale="1" pageWidth="827" pageHeight="1169" math="0" shadow="0">
      <root>
        <mxCell id="0" />
        <mxCell id="1" parent="0" />
        <mxCell id="D6v-mMEq7YlSUzDh3Wkb-28" value="用户登录信息" style="edgeStyle=orthogonalEdgeStyle;rounded=0;orthogonalLoop=1;jettySize=auto;html=1;exitX=0.5;exitY=0;exitDx=0;exitDy=0;entryX=0;entryY=0.5;entryDx=0;entryDy=0;entryPerimeter=0;" edge="1" parent="1" source="D6v-mMEq7YlSUzDh3Wkb-2" target="D6v-mMEq7YlSUzDh3Wkb-4">
          <mxGeometry relative="1" as="geometry" />
        </mxCell>
        <mxCell id="D6v-mMEq7YlSUzDh3Wkb-41" value="用户账号信息" style="edgeStyle=orthogonalEdgeStyle;rounded=0;orthogonalLoop=1;jettySize=auto;html=1;exitX=0.75;exitY=0;exitDx=0;exitDy=0;entryX=0;entryY=0.5;entryDx=0;entryDy=0;entryPerimeter=0;" edge="1" parent="1" source="D6v-mMEq7YlSUzDh3Wkb-2" target="D6v-mMEq7YlSUzDh3Wkb-39">
          <mxGeometry relative="1" as="geometry" />
        </mxCell>
        <mxCell id="D6v-mMEq7YlSUzDh3Wkb-53" value="学生选题" style="edgeStyle=orthogonalEdgeStyle;rounded=0;orthogonalLoop=1;jettySize=auto;html=1;exitX=0.75;exitY=1;exitDx=0;exitDy=0;entryX=0;entryY=0.5;entryDx=0;entryDy=0;entryPerimeter=0;" edge="1" parent="1" source="D6v-mMEq7YlSUzDh3Wkb-2" target="D6v-mMEq7YlSUzDh3Wkb-52">
          <mxGeometry relative="1" as="geometry">
            <Array as="points">
              <mxPoint x="130" y="460" />
              <mxPoint x="130" y="555" />
            </Array>
          </mxGeometry>
        </mxCell>
        <mxCell id="D6v-mMEq7YlSUzDh3Wkb-57" value="周进度报告" style="edgeStyle=orthogonalEdgeStyle;rounded=0;orthogonalLoop=1;jettySize=auto;html=1;exitX=0.75;exitY=1;exitDx=0;exitDy=0;entryX=0;entryY=0.5;entryDx=0;entryDy=0;entryPerimeter=0;" edge="1" parent="1" source="D6v-mMEq7YlSUzDh3Wkb-2" target="D6v-mMEq7YlSUzDh3Wkb-50">
          <mxGeometry relative="1" as="geometry" />
        </mxCell>
        <mxCell id="D6v-mMEq7YlSUzDh3Wkb-82" value="开题报告等材料" style="edgeStyle=orthogonalEdgeStyle;rounded=0;orthogonalLoop=1;jettySize=auto;html=1;exitX=0.5;exitY=1;exitDx=0;exitDy=0;entryX=0;entryY=0.5;entryDx=0;entryDy=0;entryPerimeter=0;" edge="1" parent="1" source="D6v-mMEq7YlSUzDh3Wkb-2" target="D6v-mMEq7YlSUzDh3Wkb-72">
          <mxGeometry relative="1" as="geometry" />
        </mxCell>
        <mxCell id="D6v-mMEq7YlSUzDh3Wkb-83" value="l论文草稿" style="edgeStyle=orthogonalEdgeStyle;rounded=0;orthogonalLoop=1;jettySize=auto;html=1;exitX=0.25;exitY=1;exitDx=0;exitDy=0;entryX=0;entryY=0.5;entryDx=0;entryDy=0;entryPerimeter=0;" edge="1" parent="1" source="D6v-mMEq7YlSUzDh3Wkb-2" target="D6v-mMEq7YlSUzDh3Wkb-61">
          <mxGeometry relative="1" as="geometry" />
        </mxCell>
        <mxCell id="D6v-mMEq7YlSUzDh3Wkb-85" style="edgeStyle=orthogonalEdgeStyle;rounded=0;orthogonalLoop=1;jettySize=auto;html=1;exitX=0;exitY=1;exitDx=0;exitDy=0;entryX=0;entryY=0.5;entryDx=0;entryDy=0;entryPerimeter=0;" edge="1" parent="1" source="D6v-mMEq7YlSUzDh3Wkb-2" target="D6v-mMEq7YlSUzDh3Wkb-62">
          <mxGeometry relative="1" as="geometry" />
        </mxCell>
        <mxCell id="D6v-mMEq7YlSUzDh3Wkb-91" value="论文修改" style="edgeStyle=orthogonalEdgeStyle;rounded=0;orthogonalLoop=1;jettySize=auto;html=1;exitX=0;exitY=0.5;exitDx=0;exitDy=0;entryX=0;entryY=0.5;entryDx=0;entryDy=0;entryPerimeter=0;" edge="1" parent="1" source="D6v-mMEq7YlSUzDh3Wkb-2" target="D6v-mMEq7YlSUzDh3Wkb-65">
          <mxGeometry relative="1" as="geometry">
            <Array as="points">
              <mxPoint y="435" />
              <mxPoint y="1040" />
            </Array>
          </mxGeometry>
        </mxCell>
        <mxCell id="D6v-mMEq7YlSUzDh3Wkb-2" value="学生" style="html=1;dashed=0;whiteSpace=wrap;fillColor=#f5f5f5;fontColor=#333333;strokeColor=#666666;" vertex="1" parent="1">
          <mxGeometry x="40" y="410" width="100" height="50" as="geometry" />
        </mxCell>
        <mxCell id="D6v-mMEq7YlSUzDh3Wkb-4" value="用户登录" style="html=1;dashed=0;whiteSpace=wrap;shape=mxgraph.dfd.start;fillColor=#f5f5f5;fontColor=#333333;strokeColor=#666666;" vertex="1" parent="1">
          <mxGeometry x="300" y="140" width="136" height="60" as="geometry" />
        </mxCell>
        <mxCell id="D6v-mMEq7YlSUzDh3Wkb-6" value="验证" style="edgeStyle=orthogonalEdgeStyle;rounded=0;orthogonalLoop=1;jettySize=auto;html=1;exitX=0.5;exitY=0;exitDx=0;exitDy=0;entryX=1;entryY=0.5;entryDx=0;entryDy=0;entryPerimeter=0;" edge="1" parent="1" source="D6v-mMEq7YlSUzDh3Wkb-7" target="D6v-mMEq7YlSUzDh3Wkb-4">
          <mxGeometry relative="1" as="geometry" />
        </mxCell>
        <mxCell id="D6v-mMEq7YlSUzDh3Wkb-31" value="用户信息" style="edgeStyle=orthogonalEdgeStyle;rounded=0;orthogonalLoop=1;jettySize=auto;html=1;" edge="1" parent="1" source="D6v-mMEq7YlSUzDh3Wkb-7" target="D6v-mMEq7YlSUzDh3Wkb-30">
          <mxGeometry relative="1" as="geometry" />
        </mxCell>
        <mxCell id="D6v-mMEq7YlSUzDh3Wkb-7" value="用户信息表" style="html=1;dashed=0;whiteSpace=wrap;shape=partialRectangle;right=0;fillColor=#f5f5f5;fontColor=#333333;strokeColor=#666666;" vertex="1" parent="1">
          <mxGeometry x="580" y="330" width="110" height="55" as="geometry" />
        </mxCell>
        <mxCell id="D6v-mMEq7YlSUzDh3Wkb-33" value="学生信息" style="edgeStyle=orthogonalEdgeStyle;rounded=0;orthogonalLoop=1;jettySize=auto;html=1;exitX=0;exitY=0.5;exitDx=0;exitDy=0;entryX=1;entryY=0.5;entryDx=0;entryDy=0;entryPerimeter=0;" edge="1" parent="1" source="D6v-mMEq7YlSUzDh3Wkb-19" target="D6v-mMEq7YlSUzDh3Wkb-30">
          <mxGeometry relative="1" as="geometry" />
        </mxCell>
        <mxCell id="D6v-mMEq7YlSUzDh3Wkb-19" value="学生信息表" style="html=1;dashed=0;whiteSpace=wrap;shape=partialRectangle;right=0;fillColor=#f5f5f5;fontColor=#333333;strokeColor=#666666;" vertex="1" parent="1">
          <mxGeometry x="580" y="410" width="110" height="55" as="geometry" />
        </mxCell>
        <mxCell id="D6v-mMEq7YlSUzDh3Wkb-35" value="课题信息" style="edgeStyle=orthogonalEdgeStyle;rounded=0;orthogonalLoop=1;jettySize=auto;html=1;exitX=0;exitY=0.5;exitDx=0;exitDy=0;entryX=0.5;entryY=0.5;entryDx=0;entryDy=30;entryPerimeter=0;" edge="1" parent="1" source="D6v-mMEq7YlSUzDh3Wkb-26" target="D6v-mMEq7YlSUzDh3Wkb-30">
          <mxGeometry relative="1" as="geometry">
            <mxPoint x="390" y="470" as="targetPoint" />
          </mxGeometry>
        </mxCell>
        <mxCell id="D6v-mMEq7YlSUzDh3Wkb-45" value="任务书相关信息" style="edgeStyle=orthogonalEdgeStyle;rounded=0;orthogonalLoop=1;jettySize=auto;html=1;exitX=0.5;exitY=1;exitDx=0;exitDy=0;entryX=1;entryY=0.5;entryDx=0;entryDy=0;entryPerimeter=0;" edge="1" parent="1" source="D6v-mMEq7YlSUzDh3Wkb-26" target="D6v-mMEq7YlSUzDh3Wkb-44">
          <mxGeometry relative="1" as="geometry" />
        </mxCell>
        <mxCell id="D6v-mMEq7YlSUzDh3Wkb-26" value="课题信息表" style="html=1;dashed=0;whiteSpace=wrap;shape=partialRectangle;right=0;fillColor=#f5f5f5;fontColor=#333333;strokeColor=#666666;" vertex="1" parent="1">
          <mxGeometry x="580" y="490" width="110" height="55" as="geometry" />
        </mxCell>
        <mxCell id="D6v-mMEq7YlSUzDh3Wkb-37" value="个人信息" style="edgeStyle=orthogonalEdgeStyle;rounded=0;orthogonalLoop=1;jettySize=auto;html=1;exitX=0;exitY=0.5;exitDx=0;exitDy=0;exitPerimeter=0;entryX=1;entryY=0.5;entryDx=0;entryDy=0;" edge="1" parent="1" source="D6v-mMEq7YlSUzDh3Wkb-30" target="D6v-mMEq7YlSUzDh3Wkb-2">
          <mxGeometry relative="1" as="geometry" />
        </mxCell>
        <mxCell id="D6v-mMEq7YlSUzDh3Wkb-30" value="查看个人信息" style="html=1;dashed=0;whiteSpace=wrap;shape=mxgraph.dfd.start;fillColor=#f5f5f5;fontColor=#333333;strokeColor=#666666;" vertex="1" parent="1">
          <mxGeometry x="370" y="405" width="136" height="60" as="geometry" />
        </mxCell>
        <mxCell id="D6v-mMEq7YlSUzDh3Wkb-42" value="修改后的用户账号信息" style="edgeStyle=orthogonalEdgeStyle;rounded=0;orthogonalLoop=1;jettySize=auto;html=1;exitX=1;exitY=0.5;exitDx=0;exitDy=0;exitPerimeter=0;entryX=0.25;entryY=0;entryDx=0;entryDy=0;" edge="1" parent="1" source="D6v-mMEq7YlSUzDh3Wkb-39" target="D6v-mMEq7YlSUzDh3Wkb-7">
          <mxGeometry relative="1" as="geometry" />
        </mxCell>
        <mxCell id="D6v-mMEq7YlSUzDh3Wkb-39" value="账号管理" style="html=1;dashed=0;whiteSpace=wrap;shape=mxgraph.dfd.start;fillColor=#f5f5f5;fontColor=#333333;strokeColor=#666666;" vertex="1" parent="1">
          <mxGeometry x="346" y="240" width="136" height="60" as="geometry" />
        </mxCell>
        <mxCell id="D6v-mMEq7YlSUzDh3Wkb-98" value="任务书信息" style="edgeStyle=orthogonalEdgeStyle;rounded=0;orthogonalLoop=1;jettySize=auto;html=1;exitX=0;exitY=0.5;exitDx=0;exitDy=0;exitPerimeter=0;entryX=0.25;entryY=0;entryDx=0;entryDy=0;" edge="1" parent="1" source="D6v-mMEq7YlSUzDh3Wkb-44" target="D6v-mMEq7YlSUzDh3Wkb-2">
          <mxGeometry relative="1" as="geometry">
            <Array as="points">
              <mxPoint x="-60" y="1110" />
              <mxPoint x="-60" y="390" />
              <mxPoint x="65" y="390" />
            </Array>
          </mxGeometry>
        </mxCell>
        <mxCell id="D6v-mMEq7YlSUzDh3Wkb-44" value="查看任务书" style="html=1;dashed=0;whiteSpace=wrap;shape=mxgraph.dfd.start;fillColor=#f5f5f5;fontColor=#333333;strokeColor=#666666;" vertex="1" parent="1">
          <mxGeometry x="444" y="1080" width="136" height="60" as="geometry" />
        </mxCell>
        <mxCell id="D6v-mMEq7YlSUzDh3Wkb-81" value="周进度报告信息" style="edgeStyle=orthogonalEdgeStyle;rounded=0;orthogonalLoop=1;jettySize=auto;html=1;exitX=1;exitY=0.5;exitDx=0;exitDy=0;exitPerimeter=0;entryX=0;entryY=0.75;entryDx=0;entryDy=0;" edge="1" parent="1" source="D6v-mMEq7YlSUzDh3Wkb-50" target="D6v-mMEq7YlSUzDh3Wkb-51">
          <mxGeometry relative="1" as="geometry" />
        </mxCell>
        <mxCell id="D6v-mMEq7YlSUzDh3Wkb-50" value="填写周进度报告" style="html=1;dashed=0;whiteSpace=wrap;shape=mxgraph.dfd.start;fillColor=#f5f5f5;fontColor=#333333;strokeColor=#666666;" vertex="1" parent="1">
          <mxGeometry x="190" y="625" width="136" height="60" as="geometry" />
        </mxCell>
        <mxCell id="D6v-mMEq7YlSUzDh3Wkb-78" value="选题信息" style="edgeStyle=orthogonalEdgeStyle;rounded=0;orthogonalLoop=1;jettySize=auto;html=1;exitX=0;exitY=0.25;exitDx=0;exitDy=0;entryX=0.299;entryY=1.037;entryDx=0;entryDy=0;entryPerimeter=0;" edge="1" parent="1" source="D6v-mMEq7YlSUzDh3Wkb-51" target="D6v-mMEq7YlSUzDh3Wkb-30">
          <mxGeometry relative="1" as="geometry" />
        </mxCell>
        <mxCell id="D6v-mMEq7YlSUzDh3Wkb-89" value="答辩相关信息" style="edgeStyle=orthogonalEdgeStyle;rounded=0;orthogonalLoop=1;jettySize=auto;html=1;exitX=0.75;exitY=1;exitDx=0;exitDy=0;entryX=1;entryY=0.5;entryDx=0;entryDy=0;entryPerimeter=0;" edge="1" parent="1" source="D6v-mMEq7YlSUzDh3Wkb-51" target="D6v-mMEq7YlSUzDh3Wkb-63">
          <mxGeometry relative="1" as="geometry" />
        </mxCell>
        <mxCell id="D6v-mMEq7YlSUzDh3Wkb-51" value="选题信息表" style="html=1;dashed=0;whiteSpace=wrap;shape=partialRectangle;right=0;fillColor=#f5f5f5;fontColor=#333333;strokeColor=#666666;" vertex="1" parent="1">
          <mxGeometry x="460" y="557" width="110" height="55" as="geometry" />
        </mxCell>
        <mxCell id="D6v-mMEq7YlSUzDh3Wkb-79" value="学生选题信息" style="edgeStyle=orthogonalEdgeStyle;rounded=0;orthogonalLoop=1;jettySize=auto;html=1;exitX=1;exitY=0.5;exitDx=0;exitDy=0;exitPerimeter=0;" edge="1" parent="1" source="D6v-mMEq7YlSUzDh3Wkb-52" target="D6v-mMEq7YlSUzDh3Wkb-51">
          <mxGeometry relative="1" as="geometry" />
        </mxCell>
        <mxCell id="D6v-mMEq7YlSUzDh3Wkb-52" value="选题" style="html=1;dashed=0;whiteSpace=wrap;shape=mxgraph.dfd.start;fillColor=#f5f5f5;fontColor=#333333;strokeColor=#666666;" vertex="1" parent="1">
          <mxGeometry x="190" y="552" width="136" height="60" as="geometry" />
        </mxCell>
        <mxCell id="D6v-mMEq7YlSUzDh3Wkb-84" value="论文草稿信息" style="edgeStyle=orthogonalEdgeStyle;rounded=0;orthogonalLoop=1;jettySize=auto;html=1;exitX=1;exitY=0.5;exitDx=0;exitDy=0;exitPerimeter=0;entryX=0.25;entryY=1;entryDx=0;entryDy=0;" edge="1" parent="1" source="D6v-mMEq7YlSUzDh3Wkb-61" target="D6v-mMEq7YlSUzDh3Wkb-51">
          <mxGeometry relative="1" as="geometry" />
        </mxCell>
        <mxCell id="D6v-mMEq7YlSUzDh3Wkb-61" value="提交论文草稿" style="html=1;dashed=0;whiteSpace=wrap;shape=mxgraph.dfd.start;fillColor=#f5f5f5;fontColor=#333333;strokeColor=#666666;" vertex="1" parent="1">
          <mxGeometry x="190" y="780" width="136" height="60" as="geometry" />
        </mxCell>
        <mxCell id="D6v-mMEq7YlSUzDh3Wkb-86" value="论文定稿信息" style="edgeStyle=orthogonalEdgeStyle;rounded=0;orthogonalLoop=1;jettySize=auto;html=1;exitX=1;exitY=0.5;exitDx=0;exitDy=0;exitPerimeter=0;entryX=0.5;entryY=1;entryDx=0;entryDy=0;" edge="1" parent="1" source="D6v-mMEq7YlSUzDh3Wkb-62" target="D6v-mMEq7YlSUzDh3Wkb-51">
          <mxGeometry relative="1" as="geometry" />
        </mxCell>
        <mxCell id="D6v-mMEq7YlSUzDh3Wkb-62" value="提交论文定稿" style="html=1;dashed=0;whiteSpace=wrap;shape=mxgraph.dfd.start;fillColor=#f5f5f5;fontColor=#333333;strokeColor=#666666;" vertex="1" parent="1">
          <mxGeometry x="190" y="860" width="136" height="60" as="geometry" />
        </mxCell>
        <mxCell id="D6v-mMEq7YlSUzDh3Wkb-90" value="答辩信息" style="edgeStyle=orthogonalEdgeStyle;rounded=0;orthogonalLoop=1;jettySize=auto;html=1;exitX=0;exitY=0.5;exitDx=0;exitDy=0;exitPerimeter=0;entryX=0;entryY=0.75;entryDx=0;entryDy=0;" edge="1" parent="1" source="D6v-mMEq7YlSUzDh3Wkb-63" target="D6v-mMEq7YlSUzDh3Wkb-2">
          <mxGeometry relative="1" as="geometry" />
        </mxCell>
        <mxCell id="D6v-mMEq7YlSUzDh3Wkb-63" value="查看答辩信息" style="html=1;dashed=0;whiteSpace=wrap;shape=mxgraph.dfd.start;fillColor=#f5f5f5;fontColor=#333333;strokeColor=#666666;" vertex="1" parent="1">
          <mxGeometry x="190" y="940" width="136" height="60" as="geometry" />
        </mxCell>
        <mxCell id="D6v-mMEq7YlSUzDh3Wkb-92" value="l论文修改信息" style="edgeStyle=orthogonalEdgeStyle;rounded=0;orthogonalLoop=1;jettySize=auto;html=1;exitX=1;exitY=0.5;exitDx=0;exitDy=0;exitPerimeter=0;entryX=1;entryY=1;entryDx=0;entryDy=0;" edge="1" parent="1" source="D6v-mMEq7YlSUzDh3Wkb-65" target="D6v-mMEq7YlSUzDh3Wkb-51">
          <mxGeometry relative="1" as="geometry" />
        </mxCell>
        <mxCell id="D6v-mMEq7YlSUzDh3Wkb-65" value="答辩后论文修改" style="html=1;dashed=0;whiteSpace=wrap;shape=mxgraph.dfd.start;fillColor=#f5f5f5;fontColor=#333333;strokeColor=#666666;" vertex="1" parent="1">
          <mxGeometry x="190" y="1010" width="136" height="60" as="geometry" />
        </mxCell>
        <mxCell id="D6v-mMEq7YlSUzDh3Wkb-73" value="开题报告等材料信息" style="edgeStyle=orthogonalEdgeStyle;rounded=0;orthogonalLoop=1;jettySize=auto;html=1;exitX=1;exitY=0.5;exitDx=0;exitDy=0;exitPerimeter=0;entryX=0;entryY=1;entryDx=0;entryDy=0;" edge="1" parent="1" source="D6v-mMEq7YlSUzDh3Wkb-72" target="D6v-mMEq7YlSUzDh3Wkb-51">
          <mxGeometry relative="1" as="geometry" />
        </mxCell>
        <mxCell id="D6v-mMEq7YlSUzDh3Wkb-72" value="提交开题报告等材料信息" style="html=1;dashed=0;whiteSpace=wrap;shape=mxgraph.dfd.start;fillColor=#f5f5f5;fontColor=#333333;strokeColor=#666666;" vertex="1" parent="1">
          <mxGeometry x="190" y="700" width="136" height="60" as="geometry" />
        </mxCell>
      </root>
    </mxGraphModel>
  </diagram>
</mxfile>
